<svg xmlns="http://www.w3.org/2000/svg" viewBox="0 0 92 91" fill="none">
  <path d="M46 0C20.6 0 0 20.4 0 45.5S20.6 91 46 91s46-20.4 46-45.5S71.4 0 46 0Zm20.3 62.7c-3.2 5.3-7.8 9.1-13.5 11.2-2.2.8-4.5 1.2-6.8 1.2-5.4 0-10.4-2.2-14.3-6.1-3.9-3.9-6.3-9.3-6.3-15.2 0-4.1 1.1-8 3.2-11.4 2.1-3.4 5.1-6.1 8.7-7.9 3.6-1.8 7.6-2.5 11.5-2 3.9.5 7.5 2.1 10.5 4.7l-6.6 8.1c-1.7-1.4-3.8-2.3-6-2.5-2.2-.2-4.4.3-6.3 1.4-1.9 1.1-3.3 2.7-4.1 4.7-.8 2-.9 4.2-.3 6.3.6 2.1 1.9 3.9 3.6 5.1 1.7 1.3 3.8 2 5.9 2 2.2 0 4.2-.7 5.9-2l6.9 7.5Z" fill="#d94130"/>
</svg>
